<svg xmlns="http://www.w3.org/2000/svg" viewBox="0 0 362.13 37.1"><defs><style>.cls-1{fill:#2b2b2b;}.cls-2{fill:#bf2138;}</style></defs><g id="remake"><path class="cls-1" d="M13.59.72l2.72,19.73L25.84.72h8.91L29.82,29.16H23.11l1.21-7L27.21,9.33l-10,19.83H12.81L9.59,8.59,7.79,22.85,6.68,29.16H0L4.92.72Z"/><path class="cls-1" d="M53.25,23.83H44.17l-2.52,5.33H34.29L49.34.72h6.29l5.26,28.44h-7Zm-6.58-5.28h5.9l-1.25-9.8Z"/><path class="cls-1" d="M77.32,19.1H73.61L71.85,29.16H65.17L70.09.72l10,0Q85,.74,87.56,3A7,7,0,0,1,89.9,9.15a9.18,9.18,0,0,1-1.78,5.1,10.43,10.43,0,0,1-4.37,3.19l3.82,11.39v.33H80.45Zm-2.81-5.27,3.9,0a5,5,0,0,0,2.79-.78,4.33,4.33,0,0,0,1.69-2.14,5.08,5.08,0,0,0,.29-2.64A2.62,2.62,0,0,0,80.41,6L75.88,6Z"/><path class="cls-1" d="M104.1,18.65l-3.47,3.26-1.27,7.25H92.68L97.6.72h6.7l-2.13,12.17,2.77-3.38L112.33.72H121L109.2,13.59l6.55,15.57h-7.64Z"/><path class="cls-1" d="M138.94,17.09H128.49l-1.19,6.79h12.36l-.92,5.28h-19L124.62.72H143.7L142.78,6H130.4l-1.05,6h10.47Z"/><path class="cls-1" d="M169.71,6h-8.28l-4,23.15h-6.7l4-23.15H146.6l.94-5.29h23.08Z"/><path class="cls-1" d="M200.58,17.09H190.13l-1.19,6.79H201.3l-.91,5.28h-19L186.27.72h19.08L204.43,6H192.05L191,12h10.47Z"/><path class="cls-1" d="M240.58,19.49l-1.68,9.67h-6.68L237.14.72l10.21,0a10.34,10.34,0,0,1,7.48,2.63,8.15,8.15,0,0,1,2.39,6.83,9.34,9.34,0,0,1-1.84,5,10.23,10.23,0,0,1-4.23,3.22,15,15,0,0,1-5.88,1.11Zm.92-5.27,4,0a5,5,0,0,0,3.89-1.66,5,5,0,0,0,1.07-3.92,3,3,0,0,0-.91-1.89,3.11,3.11,0,0,0-2-.78l-4.67,0Z"/><path class="cls-1" d="M271.82,19.1H268.1l-1.75,10.06h-6.68L264.59.72l10,0q4.81,0,7.43,2.25a7,7,0,0,1,2.33,6.16,9.18,9.18,0,0,1-1.77,5.1,10.47,10.47,0,0,1-4.38,3.19l3.83,11.39v.33h-7.13ZM269,13.83l3.91,0a4.92,4.92,0,0,0,2.78-.78,4.28,4.28,0,0,0,1.69-2.14,5.09,5.09,0,0,0,.3-2.64A2.63,2.63,0,0,0,274.9,6l-4.53,0Z"/><path class="cls-1" d="M306.41,17.09H296l-1.19,6.79h12.37l-.92,5.28h-19L292.1.72h19.08L310.26,6H297.88l-1.06,6h10.47Z"/><path class="cls-1" d="M326.71,21.46q.44-2.21-2.38-3.42l-3.2-1.32q-6.74-3-6.41-8.25a7.27,7.27,0,0,1,1.64-4.24,9.74,9.74,0,0,1,4.16-2.9,15.25,15.25,0,0,1,5.8-1,9.84,9.84,0,0,1,6.79,2.46,8.18,8.18,0,0,1,2.53,6.39H329a4,4,0,0,0-.69-2.63,3,3,0,0,0-2.47-1,5.21,5.21,0,0,0-3,.79,3.17,3.17,0,0,0-1.53,2.2c-.24,1.31.72,2.37,2.9,3.21A32.82,32.82,0,0,1,329,13.86q4.67,2.81,4.37,7.54a7.71,7.71,0,0,1-1.58,4.32,9.16,9.16,0,0,1-4,2.87,14.7,14.7,0,0,1-5.68,1,13.94,13.94,0,0,1-4.27-.72,9.28,9.28,0,0,1-3.38-2,8.64,8.64,0,0,1-2.74-6.93l6.7,0a4.57,4.57,0,0,0,.84,3.31,4,4,0,0,0,3.22,1.12,4.82,4.82,0,0,0,2.81-.77A3.15,3.15,0,0,0,326.71,21.46Z"/><path class="cls-1" d="M353.21,21.46c.28-1.47-.51-2.61-2.39-3.42l-3.2-1.32q-6.74-3-6.41-8.25a7.34,7.34,0,0,1,1.64-4.24A9.71,9.71,0,0,1,347,1.33a15.22,15.22,0,0,1,5.8-1,9.83,9.83,0,0,1,6.78,2.46,8.18,8.18,0,0,1,2.53,6.39h-6.64a4,4,0,0,0-.69-2.63,3,3,0,0,0-2.47-1,5.21,5.21,0,0,0-3,.79,3.13,3.13,0,0,0-1.52,2.2c-.25,1.31.72,2.37,2.9,3.21a32.59,32.59,0,0,1,4.75,2.14q4.67,2.81,4.38,7.54a7.8,7.8,0,0,1-1.59,4.32,9.1,9.1,0,0,1-3.95,2.87,14.69,14.69,0,0,1-5.67,1,14,14,0,0,1-4.28-.72,9.36,9.36,0,0,1-3.38-2,8.64,8.64,0,0,1-2.73-6.93l6.69,0a4.66,4.66,0,0,0,.84,3.31A4.05,4.05,0,0,0,349,24.37a4.79,4.79,0,0,0,2.8-.77A3.2,3.2,0,0,0,353.21,21.46Z"/><path class="cls-2" d="M220.17,9.41l6-9.41h7.93L224,14.38l5.57,14.06h-7.4L219,18.85,204.2,37.1h-8l19-23.27L209.84,0h7.32Z"/></g></svg>