<svg id="Layer_1" data-name="Layer 1" xmlns="http://www.w3.org/2000/svg" viewBox="0 0 629.52 626.83"><defs><style>.cls-1{fill:#1f6d8c;stroke:#1f6d8c;}.cls-1,.cls-2{stroke-miterlimit:10;stroke-width:4px;}.cls-2{fill:#dd781d;stroke:#dd781d;}</style></defs><path class="cls-1" d="M546.63,167.9c-16.59,26.74-33.2,53.72-63.8,85.83,7.95,49.34-8.63,100.28-46.52,138.16-50.82,50.86-124,62-201,29.29l-20.75,7.88c98.93,56.44,209.75,44.5,282.94-28.69C559.63,338.27,576.29,244.85,546.63,167.9ZM493.21,87.37C409.36,3.49,279.69,10.86,193.85,96.69,134.59,156,115.46,239.83,141.06,324l17.8-4.27c-14-63.13,2-120.33,43.47-161.83,66.15-66.11,164.76-72.42,229.37-7.82,1.25,1.26,2.5,2.55,14.23,16.4,22.8-14.45,44.28-34.9,64.94-59C498.07,92.34,495.67,89.83,493.21,87.37Z"/><path class="cls-2" d="M119.9,443.28,25.24,348.62c226.48-5.83,415.08-126.46,579-322.63C511.09,263.1,339.59,397.5,119.9,443.28Z"/><path class="cls-1" d="M176.73,560.69a114.72,114.72,0,0,1,1-16.12,41.12,41.12,0,0,1,3.08-11.38,30.11,30.11,0,0,1,4.56-7.32,15.37,15.37,0,0,1,6.33-4.23,32.77,32.77,0,0,1,7.48-1.87,75.37,75.37,0,0,1,8.8-.44c3,0,5.59.11,7.75.33a38.75,38.75,0,0,1,6.71,1.32,17.35,17.35,0,0,1,5.78,2.75,22.43,22.43,0,0,1,4.51,4.84,24.49,24.49,0,0,1,3.46,7.42,69.81,69.81,0,0,1,2,10.51,116.41,116.41,0,0,1,.77,14.19,97.44,97.44,0,0,1-1.38,17.76,41.11,41.11,0,0,1-3.74,11.72,16.72,16.72,0,0,1-6.49,6.76,26,26,0,0,1-8.52,3.14,65.11,65.11,0,0,1-10.89.77,81.82,81.82,0,0,1-9.24-.44,34,34,0,0,1-7.59-1.82,14.9,14.9,0,0,1-6.27-4.07,27.13,27.13,0,0,1-4.4-7.09,39.68,39.68,0,0,1-2.86-11.06A120.63,120.63,0,0,1,176.73,560.69Zm8.14,0a107.73,107.73,0,0,0,1,16.94q1.05,6.27,4.07,9.68a13.74,13.74,0,0,0,7,4.4,47.57,47.57,0,0,0,11,1,46.43,46.43,0,0,0,9-.72,17.41,17.41,0,0,0,6.38-2.64,12.27,12.27,0,0,0,4.4-5.55,37.3,37.3,0,0,0,2.31-9.19,104.69,104.69,0,0,0,.77-13.91q0-5.51-.33-9.85t-.77-7.64a21.45,21.45,0,0,0-1.54-5.78q-1.11-2.48-2-4.12a7.75,7.75,0,0,0-2.64-2.81,28.85,28.85,0,0,0-3-1.76,12.43,12.43,0,0,0-3.74-.88c-1.65-.18-3-.29-4.12-.33s-2.68,0-4.73,0-3.62,0-4.68,0-2.42.15-4.07.33a13.15,13.15,0,0,0-3.79.88,24.69,24.69,0,0,0-3.08,1.76,8.12,8.12,0,0,0-2.7,2.81q-.93,1.65-2,4.12a22.17,22.17,0,0,0-1.6,5.78q-.5,3.3-.82,7.7C185,553.83,184.87,557.1,184.87,560.69Z"/><path class="cls-1" d="M250.54,600.4V519.88h34.32q18.58,0,18.59,24.2,0,21.12-14,23.1l16.94,33.22h-8.8l-16.94-32.89-22-1.54V600.4Zm8.14-41.69h26.18c1.32,0,2.34,0,3.08-.11a8.91,8.91,0,0,0,2.69-.83,5,5,0,0,0,2.42-2.2,17.19,17.19,0,0,0,1.49-4.4,32.56,32.56,0,0,0,.66-7.09q0-9.68-2.86-12.82a9.65,9.65,0,0,0-7.48-3.13H258.68Z"/><path class="cls-1" d="M318,600.4V519.88h31q10.89,0,15.9,6.38a22.86,22.86,0,0,1,5,14.52q0,14.63-10.12,17.82,4.19,1,7.37,5.88T370.32,578a32.79,32.79,0,0,1-1,8.3,22,22,0,0,1-3.3,7.1,15.19,15.19,0,0,1-6.65,5.17A26.16,26.16,0,0,1,349,600.4Zm8.25-46.2H349q12.76,0,12.76-13.42Q361.74,528,349,528H326.21Zm0,38.06H349q13.2,0,13.2-14.52a17.81,17.81,0,0,0-3.3-11q-3.3-4.4-9.9-4.4H326.21Z"/><path class="cls-1" d="M383.52,600.4V519.88h8.14V600.4Z"/><path class="cls-1" d="M403.21,528v-8.14h55.88V528h-24.2V600.4h-8.14V528Z"/><path class="cls-1" d="M453.79,600.4l29.59-80.52h8.14l28.27,80.52h-9.68L503.18,578H471.06L463.8,600.4ZM474,569.82h26.29l-13-37.51Z"/></svg>