<svg id="outline" xmlns="http://www.w3.org/2000/svg" viewBox="0 0 496.21 463.38"><defs><style>.cls-1{fill:#d7f5f9;}</style></defs><path class="cls-1" d="M461.21,198l15.91,3.05-8.25,25.16L445,241.33l-15.22,29.26,13.81,27.06,2.11,4.13c.15.36-.06,2.28.09,2.64l-27.52,31.4,21.48,29.54,3.47,4.78-15.88-2.72-.58-.09-3.59-8.73-1.46-2.94-23.24-2.88-11.72,19.77-.71,1.17,19.83,25.69,20.77,4.81-1.5-8.29-2.69-6.53L443.23,381l2.85,6.13-2.42,5.77a36.06,36.06,0,0,0-3,7.28c-.82,2.6-1.51,5.25-2.35,7.6L444.39,421q-3.74,1.68-7.58,3.26c-2.69,1.09-5.4,2.13-8.1,3.09h0l-29.88-11.79L358.25,413l-20.41-37.3-.07-.12-3.43-3.69-11.25-3.34c-4.56-3-9.16-11.09-14-13.53l7.44,21.09,4.87,13.79-14.56-10.6-1.44-3.18-12.28-27.25-47.25-14-39.49-37-9.25-58.8s-16.53-12.38-24.61-23.55l-27.8-25.22-57.1-17.11L37.06,199.67l2.14-46.48,7.95-19.95L19.09,96,63.73,71.16l99.56,28.72,21-20.31,27.06-19.95,50.87,5.7,45,2.7,37.3-32,12.59,5.26-1.71,22.13,17.39,22.67-41.6,29L315.11,135l18.79,31.75,17,10.25L367,141.83l17.91,17.29-3.36,17.59L395,182.09l22.15-13.8,1.78-17.8-8.57-8.21,5.46-22.7L429.56,114l13.8,5.12,23.16-8.79,8.66,4-11.37,25.09,1.05,16.72-17.33,34c-.4,1.28-28.1,12.74-28.1,12.74l-7.28,24,32.91-12.13Z"/></svg>