<svg id="remake" xmlns="http://www.w3.org/2000/svg" viewBox="0 0 800 894.33"><defs><style>.cls-1{fill:#2b2b2b;}.cls-2,.cls-3{fill:#bf2138;}.cls-3{font-size:20px;}.cls-3,.cls-6{font-family:Lato-Italic, Lato;font-style:italic;}.cls-4{letter-spacing:-0.05em;}.cls-5{letter-spacing:-0.02em;}.cls-6{font-size:12px;fill:#181818;}.cls-7{letter-spacing:-0.02em;}.cls-8{letter-spacing:-0.02em;}.cls-9{letter-spacing:-0.05em;}.cls-10{letter-spacing:-0.04em;}.cls-11{letter-spacing:0em;}.cls-12{letter-spacing:-0.02em;}.cls-13{letter-spacing:-0.01em;}.cls-14{letter-spacing:-0.01em;}.cls-15{letter-spacing:-0.01em;}.cls-16{letter-spacing:-0.01em;}.cls-17{letter-spacing:-0.02em;}.cls-18{letter-spacing:-0.02em;}.cls-19{letter-spacing:-0.03em;}.cls-20{letter-spacing:0em;}.cls-21{letter-spacing:-0.01em;}.cls-22{letter-spacing:-0.05em;}.cls-23{letter-spacing:-0.02em;}.cls-24{font-size:18px;}.cls-24,.cls-32{fill:#231f20;font-family:Roboto-Medium, Roboto;font-weight:500;}.cls-25{letter-spacing:-0.09em;}.cls-26{letter-spacing:-0.01em;}.cls-27{letter-spacing:0.01em;}.cls-28{letter-spacing:-0.04em;}.cls-29{letter-spacing:-0.03em;}.cls-30{letter-spacing:-0.01em;}.cls-31{letter-spacing:0em;}.cls-32{font-size:13px;}.cls-33{letter-spacing:-0.01em;}.cls-34{letter-spacing:-0.01em;}.cls-35{letter-spacing:-0.01em;}.cls-36{letter-spacing:-0.01em;}</style></defs><path class="cls-1" d="M64.15,50.72l2.71,19.73,9.53-19.73H85.3L80.38,79.16H73.66l1.21-7,2.89-12.85-10,19.83H63.37L60.14,58.59,58.35,72.85l-1.12,6.31H50.55l4.93-28.44Z"/><path class="cls-1" d="M103.8,73.83H94.72L92.2,79.16H84.84L99.9,50.72h6.29l5.25,28.44h-7Zm-6.58-5.28h5.9l-1.25-9.8Z"/><path class="cls-1" d="M127.87,69.1h-3.71l-1.75,10.06h-6.68l4.92-28.44,10,0q4.81,0,7.43,2.25a7,7,0,0,1,2.33,6.16,9.11,9.11,0,0,1-1.78,5.1,10.43,10.43,0,0,1-4.37,3.19l3.83,11.39v.33H131Zm-2.81-5.27,3.91,0a4.92,4.92,0,0,0,2.78-.78,4.28,4.28,0,0,0,1.69-2.14,5,5,0,0,0,.29-2.64A2.62,2.62,0,0,0,131,56l-4.53,0Z"/><path class="cls-1" d="M154.66,68.65l-3.48,3.26-1.27,7.25h-6.68l4.92-28.44h6.7l-2.13,12.17,2.78-3.38,7.38-8.79h8.67L159.76,63.59l6.54,15.57h-7.64Z"/><path class="cls-1" d="M189.49,67.09H179l-1.19,6.79h12.36l-.91,5.28H170.25l4.92-28.44h19.09L193.34,56H181l-1.06,6h10.47Z"/><path class="cls-1" d="M220.26,56H212l-4,23.15h-6.69l4-23.15h-8.15l.94-5.29h23.09Z"/><path class="cls-1" d="M251.14,67.09H240.69l-1.2,6.79h12.37l-.92,5.28h-19l4.92-28.44H255.9L255,56H242.6l-1,6H252Z"/><path class="cls-1" d="M291.13,69.49l-1.68,9.67h-6.68l4.92-28.44,10.22,0a10.33,10.33,0,0,1,7.47,2.63,8.12,8.12,0,0,1,2.39,6.83,9.33,9.33,0,0,1-1.83,5,10.23,10.23,0,0,1-4.23,3.22,15,15,0,0,1-5.89,1.11Zm.92-5.27,4,0A5,5,0,0,0,300,62.6,4.88,4.88,0,0,0,301,58.68a3,3,0,0,0-.9-1.89,3.16,3.16,0,0,0-2-.78l-4.67,0Z"/><path class="cls-1" d="M322.37,69.1h-3.71L316.9,79.16h-6.68l4.92-28.44,10,0q4.83,0,7.43,2.25A7,7,0,0,1,335,59.15a9.26,9.26,0,0,1-1.78,5.1,10.43,10.43,0,0,1-4.37,3.19l3.82,11.39v.33h-7.13Zm-2.81-5.27,3.9,0a5,5,0,0,0,2.79-.78,4.33,4.33,0,0,0,1.69-2.14,5.19,5.19,0,0,0,.29-2.64A2.62,2.62,0,0,0,325.46,56l-4.54,0Z"/><path class="cls-1" d="M357,67.09H346.52l-1.19,6.79h12.36l-.92,5.28h-19l4.92-28.44h19.08L360.81,56H348.43l-1.05,6h10.47Z"/><path class="cls-1" d="M377.27,71.46q.42-2.2-2.38-3.42l-3.21-1.32q-6.74-3-6.4-8.25a7.21,7.21,0,0,1,1.64-4.24,9.68,9.68,0,0,1,4.16-2.9,15.22,15.22,0,0,1,5.8-1,9.83,9.83,0,0,1,6.78,2.46,8.14,8.14,0,0,1,2.53,6.39h-6.64a4,4,0,0,0-.69-2.63,3,3,0,0,0-2.47-1,5.21,5.21,0,0,0-3,.79,3.13,3.13,0,0,0-1.52,2.2c-.25,1.31.72,2.37,2.9,3.21a32.59,32.59,0,0,1,4.75,2.14c3.12,1.87,4.57,4.38,4.38,7.54a7.79,7.79,0,0,1-1.58,4.32,9.13,9.13,0,0,1-4,2.87,14.69,14.69,0,0,1-5.67,1,14,14,0,0,1-4.28-.72,9.36,9.36,0,0,1-3.38-2,8.64,8.64,0,0,1-2.73-6.93l6.7,0a4.57,4.57,0,0,0,.84,3.31,4,4,0,0,0,3.22,1.12,4.79,4.79,0,0,0,2.8-.77A3.2,3.2,0,0,0,377.27,71.46Z"/><path class="cls-1" d="M403.76,71.46c.29-1.47-.51-2.61-2.38-3.42l-3.21-1.32q-6.74-3-6.4-8.25a7.27,7.27,0,0,1,1.64-4.24,9.68,9.68,0,0,1,4.16-2.9,15.22,15.22,0,0,1,5.8-1,9.87,9.87,0,0,1,6.79,2.46,8.21,8.21,0,0,1,2.53,6.39h-6.64a4,4,0,0,0-.7-2.63,3,3,0,0,0-2.47-1,5.21,5.21,0,0,0-3,.79,3.16,3.16,0,0,0-1.52,2.2c-.25,1.31.72,2.37,2.9,3.21a32.82,32.82,0,0,1,4.76,2.14q4.67,2.81,4.37,7.54a7.71,7.71,0,0,1-1.58,4.32,9.13,9.13,0,0,1-4,2.87,14.62,14.62,0,0,1-5.67,1,14,14,0,0,1-4.28-.72,9.45,9.45,0,0,1-3.38-2,8.64,8.64,0,0,1-2.73-6.93l6.7,0a4.57,4.57,0,0,0,.84,3.31,4,4,0,0,0,3.22,1.12,4.79,4.79,0,0,0,2.8-.77A3.2,3.2,0,0,0,403.76,71.46Z"/><path class="cls-2" d="M270.73,59.41l6-9.41h7.93L274.52,64.38l5.56,14.06h-7.4l-3.13-9.59L254.75,87.1h-8l19-23.27L260.39,50h7.33Z"/><text class="cls-3" transform="translate(50.55 743.37)"> <tspan class="cls-4" x="3.86" y="0">W</tspan><tspan x="21.63" y="0">e a</tspan><tspan class="cls-5" x="44.81" y="0">r</tspan><tspan x="51.43" y="0">e MARKET EXPRESS</tspan></text><text class="cls-6" transform="translate(54.35 782.13) scale(1.01 1)">A Northwest owned and ope<tspan class="cls-7" x="137.73" y="0">r</tspan><tspan x="141.7" y="0">ated t</tspan><tspan class="cls-7" x="170.14" y="0">r</tspan><tspan x="174.11" y="0">ansportation and logistics compa</tspan><tspan class="cls-8" x="334.62" y="0">n</tspan><tspan x="340.68" y="0">y servicing </tspan><tspan x="0" y="24">customers in the </tspan><tspan class="cls-9" x="82.3" y="24">W</tspan><tspan x="92.96" y="24">estern States.</tspan></text><text class="cls-6" transform="translate(54.35 839.22) scale(1.01 1)"><tspan class="cls-9">W</tspan><tspan class="cls-10" x="10.66" y="0">e</tspan><tspan x="15.71" y="0">&apos;</tspan><tspan class="cls-7" x="18.27" y="0">r</tspan><tspan x="22.24" y="0">e p</tspan><tspan class="cls-7" x="36.31" y="0">r</tspan><tspan class="cls-11" x="40.28" y="0">oud of our Northwest </tspan><tspan class="cls-12" x="146.27" y="0">r</tspan><tspan x="150.24" y="0">oots- that&apos;s because </tspan><tspan class="cls-13" x="249.32" y="0">y</tspan><tspan x="254.88" y="0">our home is our home.</tspan></text><text class="cls-3" transform="translate(50.89 627.97)">Who <tspan class="cls-14" x="43.33" y="0">y</tspan><tspan x="52.59" y="0">ou work with matters! </tspan></text><text class="cls-6" transform="translate(50.55 662.76) scale(1.01 1)">Do they know <tspan class="cls-15" x="69.61" y="0">y</tspan><tspan x="75.17" y="0">ou, and do </tspan><tspan class="cls-15" x="128.02" y="0">y</tspan><tspan x="133.58" y="0">ou know them? Do they understand </tspan><tspan class="cls-16" x="308.43" y="0">y</tspan><tspan x="313.98" y="0">our needs and the </tspan><tspan x="0" y="24">unique challenges of </tspan><tspan class="cls-15" x="100.97" y="24">y</tspan><tspan x="106.53" y="24">our job?</tspan></text><text class="cls-6" transform="translate(66.04 206.29) scale(1.01 1)">• Class A CDL with at least one <tspan class="cls-15" x="153.12" y="0">y</tspan><tspan x="158.68" y="0">ear of t</tspan><tspan class="cls-17" x="192.88" y="0">r</tspan><tspan x="196.85" y="0">actor-t</tspan><tspan class="cls-18" x="230.42" y="0">r</tspan><tspan x="234.39" y="0">ailer </tspan><tspan class="cls-19" x="258.28" y="0">e</tspan><tspan x="263.5" y="0">xperience</tspan><tspan x="0" y="21">• No mo</tspan><tspan class="cls-18" x="41.4" y="21">r</tspan><tspan x="45.37" y="21">e than th</tspan><tspan class="cls-18" x="88.85" y="21">r</tspan><tspan class="cls-20" x="92.82" y="21">ee moving violations within the past th</tspan><tspan class="cls-17" x="280.01" y="21">r</tspan><tspan x="283.98" y="21">ee </tspan><tspan class="cls-15" x="297.36" y="21">y</tspan><tspan x="302.91" y="21">ears</tspan><tspan x="0" y="42">• No DUI/DWI or </tspan><tspan class="cls-18" x="87.77" y="42">r</tspan><tspan x="91.74" y="42">eckless driving violations in the last fi</tspan><tspan class="cls-21" x="270.67" y="42">v</tspan><tspan x="276.23" y="42">e </tspan><tspan class="cls-15" x="284.07" y="42">y</tspan><tspan x="289.63" y="42">ears</tspan></text><text class="cls-6" transform="translate(50.55 182.03) scale(1.01 1)"><tspan class="cls-22">W</tspan><tspan x="10.66" y="0">e a</tspan><tspan class="cls-18" x="24.57" y="0">r</tspan><tspan x="28.54" y="0">e cur</tspan><tspan class="cls-17" x="52.1" y="0">r</tspan><tspan x="56.07" y="0">ently seeking </tspan><tspan class="cls-19" x="121.51" y="0">e</tspan><tspan x="126.74" y="0">xperienced Compa</tspan><tspan class="cls-23" x="217.55" y="0">n</tspan><tspan x="223.61" y="0">y dri</tspan><tspan class="cls-15" x="245.08" y="0">v</tspan><tspan x="250.64" y="0">ers with the following qualifications:</tspan></text><text class="cls-24" transform="translate(50.77 143.07)">COM<tspan class="cls-25" x="39.94" y="0">P</tspan><tspan x="49.88" y="0">A</tspan><tspan class="cls-26" x="61.86" y="0">N</tspan><tspan x="74.39" y="0">Y REGIO</tspan><tspan class="cls-27" x="141.01" y="0">N</tspan><tspan x="153.95" y="0">AL / </tspan><tspan class="cls-28" x="191.75" y="0">O</tspan><tspan x="203.43" y="0">TR</tspan><tspan class="cls-29" x="225.59" y="0"> </tspan><tspan x="229.54" y="0">TRUCK DRIVING JOBS</tspan></text><text class="cls-6" transform="translate(65.83 324.9) scale(1.01 1)">• Steady work and income<tspan x="0" y="21">• $3,000 t</tspan><tspan class="cls-18" x="53.05" y="21">r</tspan><tspan x="57.02" y="21">ansition bonus</tspan><tspan x="0" y="42">• Competiti</tspan><tspan class="cls-15" x="57.92" y="42">v</tspan><tspan x="63.48" y="42">e Medical, Dental and Vision for the family</tspan><tspan x="0" y="63">• </tspan><tspan class="cls-30" x="9.28" y="63">P</tspan><tspan x="15.86" y="63">aid for all dispatched miles (loaded and empty)</tspan><tspan x="0" y="84">• </tspan><tspan class="cls-30" x="9.28" y="84">P</tspan><tspan x="15.86" y="84">aid lumper fees</tspan><tspan x="0" y="105">• </tspan><tspan class="cls-30" x="9.28" y="105">P</tspan><tspan x="15.86" y="105">aid detention</tspan><tspan x="0" y="126">• </tspan><tspan class="cls-30" x="9.28" y="126">P</tspan><tspan x="15.86" y="126">aid </tspan><tspan class="cls-21" x="33.47" y="126">v</tspan><tspan x="39.03" y="126">acation</tspan><tspan x="0" y="147">• </tspan><tspan class="cls-30" x="9.28" y="147">P</tspan><tspan x="15.86" y="147">aid la</tspan><tspan class="cls-21" x="42.38" y="147">y</tspan><tspan x="47.94" y="147">o</tspan><tspan class="cls-15" x="53.97" y="147">v</tspan><tspan x="59.52" y="147">er</tspan><tspan x="0" y="168">• </tspan><tspan class="cls-30" x="9.28" y="168">P</tspan><tspan x="15.86" y="168">aid chain-up</tspan><tspan x="0" y="189">• P</tspan><tspan class="cls-18" x="16.04" y="189">r</tspan><tspan x="20.02" y="189">epass and P</tspan><tspan class="cls-17" x="77.24" y="189">r</tspan><tspan class="cls-31" x="81.21" y="189">epass+</tspan><tspan x="0" y="210">• Stop pay</tspan><tspan x="0" y="231">• 401k</tspan><tspan x="0" y="252">• New equipment</tspan></text><text class="cls-32" transform="translate(50.55 290.61)">What we h<tspan class="cls-33" x="60.34" y="0">a</tspan><tspan class="cls-34" x="67.28" y="0">v</tspan><tspan x="73.63" y="0">e </tspan><tspan class="cls-35" x="83.84" y="0">t</tspan><tspan x="87.97" y="0">o of</tspan><tspan class="cls-36" x="110.62" y="0">f</tspan><tspan x="115.08" y="0">er:</tspan></text></svg>