<svg xmlns="http://www.w3.org/2000/svg" viewBox="0 0 800 800.94"><defs><style>.cls-1,.cls-3{fill:#bf2138;}.cls-2,.cls-31,.cls-7{fill:#181818;}.cls-3{font-size:24px;font-family:Lato-Italic, Lato;font-style:italic;}.cls-4{letter-spacing:-0.05em;}.cls-5{letter-spacing:-0.02em;}.cls-6{letter-spacing:0em;}.cls-7{font-size:13px;font-family:Roboto-Regular, Roboto;}.cls-8{letter-spacing:0.02em;}.cls-9{letter-spacing:-0.02em;}.cls-10{letter-spacing:-0.02em;}.cls-11{letter-spacing:0.01em;}.cls-12{letter-spacing:-0.01em;}.cls-13{letter-spacing:-0.02em;}.cls-14{letter-spacing:-0.01em;}.cls-15{letter-spacing:-0.01em;}.cls-16{letter-spacing:-0.01em;}.cls-17{letter-spacing:0.02em;}.cls-18{letter-spacing:-0.04em;}.cls-19{letter-spacing:-0.01em;}.cls-20{letter-spacing:-0.01em;}.cls-21{letter-spacing:-0.01em;}.cls-22{letter-spacing:-0.01em;}.cls-23{letter-spacing:-0.01em;}.cls-24{letter-spacing:-0.01em;}.cls-25{letter-spacing:-0.02em;}.cls-26{letter-spacing:-0.01em;}.cls-27{letter-spacing:-0.01em;}.cls-28{letter-spacing:0em;}.cls-29{letter-spacing:-0.01em;}.cls-30{letter-spacing:0em;}.cls-31{font-size:18px;}.cls-31,.cls-36{font-family:Roboto-Medium, Roboto;font-weight:500;}.cls-32{letter-spacing:-0.02em;}.cls-33{letter-spacing:-0.01em;}.cls-34{letter-spacing:-0.01em;}.cls-35{letter-spacing:-0.01em;}.cls-36{font-size:20px;fill:#231f20;}.cls-37{letter-spacing:-0.09em;}.cls-38{letter-spacing:-0.01em;}.cls-39{letter-spacing:0.01em;}.cls-40{letter-spacing:-0.04em;}.cls-41{letter-spacing:-0.03em;}.cls-42{letter-spacing:-0.01em;}.cls-43{letter-spacing:-0.01em;}.cls-44{letter-spacing:-0.01em;}.cls-45{letter-spacing:-0.01em;}.cls-46{letter-spacing:-0.01em;}</style></defs><g id="pictures"><polygon class="cls-1" points="770.44 795.97 785.11 795.97 785.11 89.27 770.44 71.19 770.44 795.97"/><polygon class="cls-2" points="724 795.97 760 795.97 760 64.93 724 20.04 724 795.97"/></g><g id="remake"><text class="cls-3" transform="translate(25 696.36)"><tspan class="cls-4">W</tspan><tspan x="21.32" y="0">e a</tspan><tspan class="cls-5" x="49.14" y="0">r</tspan><tspan class="cls-6" x="57.08" y="0">e MARKET EXPRESS</tspan></text><text class="cls-7" transform="translate(25.33 722.07) scale(1.01 1)">A No<tspan class="cls-8" x="28.38" y="0">r</tspan><tspan x="33.1" y="0">thwest owned and ope</tspan><tspan class="cls-9" x="163.51" y="0">r</tspan><tspan x="167.65" y="0">ated t</tspan><tspan class="cls-10" x="200.65" y="0">r</tspan><tspan x="204.8" y="0">anspo</tspan><tspan class="cls-8" x="240.45" y="0">r</tspan><tspan x="245.17" y="0">tation and logistics company se</tspan><tspan class="cls-11" x="428.44" y="0">r</tspan><tspan x="432.95" y="0">vicing </tspan><tspan x="0" y="24">cus</tspan><tspan class="cls-12" x="20.67" y="24">t</tspan><tspan x="24.79" y="24">omers in the </tspan><tspan class="cls-13" x="99.87" y="24">W</tspan><tspan x="111.2" y="24">estern States.</tspan></text><text class="cls-7" transform="translate(25 773.18) scale(1.01 1)"><tspan class="cls-13">W</tspan><tspan class="cls-14" x="11.34" y="0">e</tspan><tspan x="18.14" y="0">&apos;</tspan><tspan class="cls-15" x="20.4" y="0">r</tspan><tspan x="24.68" y="0">e p</tspan><tspan class="cls-16" x="42.08" y="0">r</tspan><tspan x="46.35" y="0">oud of our No</tspan><tspan class="cls-17" x="125.5" y="0">r</tspan><tspan x="130.22" y="0">thwest </tspan><tspan class="cls-16" x="172.45" y="0">r</tspan><tspan x="176.72" y="0">oots- that</tspan><tspan class="cls-18" x="232.03" y="0">&apos;</tspan><tspan x="233.78" y="0">s because </tspan><tspan class="cls-19" x="295.74" y="0">y</tspan><tspan x="301.79" y="0">our home is our home.</tspan></text><text class="cls-3" transform="translate(25.33 602.18)">Who <tspan class="cls-20" x="52" y="0">y</tspan><tspan x="63.11" y="0">ou work with matters! </tspan></text><text class="cls-7" transform="translate(25 627.89) scale(1.01 1)">Do th<tspan class="cls-21" x="30.56" y="0">e</tspan><tspan x="37.37" y="0">y know </tspan><tspan class="cls-22" x="80.9" y="0">y</tspan><tspan x="86.96" y="0">ou, and do </tspan><tspan class="cls-19" x="150.06" y="0">y</tspan><tspan x="156.12" y="0">ou know them? Do th</tspan><tspan class="cls-23" x="277.69" y="0">e</tspan><tspan x="284.49" y="0">y understand </tspan><tspan class="cls-19" x="362.56" y="0">y</tspan><tspan x="368.62" y="0">our </tspan><tspan x="0" y="24">needs and the unique challenges of </tspan><tspan class="cls-19" x="207.31" y="24">y</tspan><tspan x="213.37" y="24">our job?</tspan></text><text class="cls-7" transform="translate(49.98 150.79) scale(1.01 1)">• Class A CDL with at least one <tspan class="cls-24" x="179.87" y="0">y</tspan><tspan x="185.94" y="0">ear of t</tspan><tspan class="cls-25" x="226.9" y="0">r</tspan><tspan x="231.05" y="0">ac</tspan><tspan class="cls-26" x="244.92" y="0">t</tspan><tspan x="249.04" y="0">or-t</tspan><tspan class="cls-25" x="268.69" y="0">r</tspan><tspan x="272.84" y="0">ailer experience</tspan><tspan x="0" y="24">• No mo</tspan><tspan class="cls-27" x="46.31" y="24">r</tspan><tspan class="cls-28" x="50.58" y="24">e than th</tspan><tspan class="cls-27" x="100.97" y="24">r</tspan><tspan x="105.24" y="24">ee m</tspan><tspan class="cls-29" x="133.63" y="24">o</tspan><tspan x="140.95" y="24">ving violations within the past th</tspan><tspan class="cls-27" x="326.42" y="24">r</tspan><tspan x="330.7" y="24">ee </tspan><tspan class="cls-21" x="347.69" y="24">y</tspan><tspan x="353.76" y="24">ears</tspan><tspan x="0" y="48">• No DUI/DWI or </tspan><tspan class="cls-27" x="95.19" y="48">r</tspan><tspan class="cls-28" x="99.47" y="48">eckless driving violations in the last fi</tspan><tspan class="cls-21" x="314.56" y="48">v</tspan><tspan x="320.77" y="48">e </tspan><tspan class="cls-24" x="330.88" y="48">y</tspan><tspan class="cls-30" x="336.95" y="48">ears</tspan></text><text class="cls-31" transform="translate(24.98 101.65) scale(1.01 1)"><tspan class="cls-32">W</tspan><tspan x="15.57" y="0">e a</tspan><tspan class="cls-33" x="39.45" y="0">r</tspan><tspan x="45.61" y="0">e cur</tspan><tspan class="cls-34" x="85.5" y="0">r</tspan><tspan x="91.66" y="0">ently seeking experienced Company dri</tspan><tspan class="cls-35" x="407.15" y="0">v</tspan><tspan x="415.94" y="0">ers with the </tspan><tspan x="0" y="21.6">following qualifications:</tspan></text><text class="cls-36" transform="translate(25 40)">COM<tspan class="cls-37" x="44.38" y="0">P</tspan><tspan x="55.42" y="0">A</tspan><tspan class="cls-38" x="68.73" y="0">N</tspan><tspan x="82.66" y="0">Y REGIO</tspan><tspan class="cls-39" x="156.68" y="0">N</tspan><tspan x="171.05" y="0">AL / </tspan><tspan class="cls-40" x="213.06" y="0">O</tspan><tspan x="226.04" y="0">TR</tspan><tspan class="cls-41" x="250.65" y="0"> </tspan><tspan x="255.05" y="0">TRUCK DRIVING JOBS</tspan></text><text class="cls-7" transform="translate(50 266.11) scale(1.01 1)">• Steady work and income<tspan x="0" y="24">• $3,000 t</tspan><tspan class="cls-25" x="54.11" y="24">r</tspan><tspan x="58.26" y="24">ansition bonus</tspan><tspan x="0" y="48">• Competiti</tspan><tspan class="cls-24" x="63.85" y="48">v</tspan><tspan x="70.07" y="48">e Medical, Dental and Vision for the family</tspan><tspan x="0" y="72">• </tspan><tspan class="cls-42" x="7.6" y="72">P</tspan><tspan x="15.73" y="72">aid for all dispatched miles (loaded and empty)</tspan><tspan x="0" y="96">• </tspan><tspan class="cls-42" x="7.6" y="96">P</tspan><tspan x="15.73" y="96">aid lumper </tspan><tspan class="cls-43" x="80.02" y="96">f</tspan><tspan x="84.38" y="96">ees</tspan><tspan x="0" y="120">• </tspan><tspan class="cls-42" x="7.6" y="120">P</tspan><tspan x="15.73" y="120">aid detention</tspan><tspan x="0" y="144">• </tspan><tspan class="cls-42" x="7.6" y="144">P</tspan><tspan x="15.73" y="144">aid </tspan><tspan class="cls-29" x="36.51" y="144">v</tspan><tspan x="42.71" y="144">acation</tspan><tspan x="0" y="168">• </tspan><tspan class="cls-42" x="7.6" y="168">P</tspan><tspan x="15.73" y="168">aid l</tspan><tspan class="cls-29" x="39.66" y="168">ayo</tspan><tspan class="cls-24" x="60.01" y="168">v</tspan><tspan x="66.23" y="168">er</tspan><tspan x="0" y="192">• </tspan><tspan class="cls-42" x="7.6" y="192">P</tspan><tspan x="15.73" y="192">aid chain-up</tspan><tspan x="0" y="216">• P</tspan><tspan class="cls-15" x="15.8" y="216">r</tspan><tspan class="cls-30" x="20.08" y="216">epass and P</tspan><tspan class="cls-15" x="90.95" y="216">r</tspan><tspan x="95.23" y="216">epass+</tspan><tspan x="0" y="240">• S</tspan><tspan class="cls-26" x="15.31" y="240">t</tspan><tspan x="19.43" y="240">op p</tspan><tspan class="cls-29" x="44.65" y="240">a</tspan><tspan x="51.63" y="240">y</tspan><tspan x="0" y="264">• 401k</tspan><tspan x="0" y="288">• New equipment</tspan></text><text class="cls-31" transform="translate(25 239.69) scale(1.01 1)">What we h<tspan class="cls-44" x="83.55" y="0">a</tspan><tspan class="cls-35" x="93.16" y="0">v</tspan><tspan x="101.95" y="0">e </tspan><tspan class="cls-45" x="116.09" y="0">t</tspan><tspan x="121.81" y="0">o of</tspan><tspan class="cls-46" x="153.17" y="0">f</tspan><tspan x="159.34" y="0">er:</tspan></text></g></svg>